<!DOCTYPE svg PUBLIC "-//W3C//DTD SVG 1.1//EN" "http://www.w3.org/Graphics/SVG/1.1/DTD/svg11.dtd">
<!-- Uploaded to: SVG Repo, www.svgrepo.com, Transformed by: SVG Repo Mixer Tools -->
<svg fill="#ffffff" height="129px" width="129px" version="1.1" id="Layer_1" xmlns="http://www.w3.org/2000/svg" xmlns:xlink="http://www.w3.org/1999/xlink" viewBox="0 0 511.96 511.96" xml:space="preserve" stroke="#ffffff" stroke-width="0.00511957">
<g id="SVGRepo_bgCarrier" stroke-width="0"/>
<g id="SVGRepo_tracerCarrier" stroke-linecap="round" stroke-linejoin="round"/>
<g id="SVGRepo_iconCarrier"> <g> <g> <path d="M373.355,170.688c-3.733,0-7.253,0.789-10.667,1.749v94.251c0,5.888-4.779,10.667-10.667,10.667 c-5.888,0-10.667-4.779-10.667-10.667V164.651c-7.317-8.555-17.685-14.421-29.696-15.061l18.24-91.221 c0.512-2.624,0.789-5.291,0.789-7.979V40.64c0-22.4-18.219-40.619-40.619-40.619c-18.667,0-34.88,12.651-39.403,30.763 l-36.16,144.619l-27.712-138.56C182.528,15.509,163.627,0,141.845,0c-25.28,0-45.824,20.565-45.824,45.824v4.011 c0,3.029,0.299,6.037,0.896,8.981l36.053,180.288l22.251-14.848c33.493-22.315,77.056-27.371,114.795-13.227l19.456,7.296 c24.661,9.259,41.216,33.152,41.216,59.477c0,35.008-28.48,63.509-63.509,63.509c-12.416,0-24.085,4.843-32.853,13.611 l-19.691,19.691c-2.091,2.091-4.821,3.115-7.552,3.115c-2.731,0-5.461-1.045-7.552-3.115c-4.16-4.16-4.16-10.923,0-15.083 l19.691-19.691c12.8-12.8,29.824-19.861,47.936-19.861c23.253,0,42.176-18.923,42.176-42.176 c0-17.472-11.008-33.344-27.371-39.488l-19.456-7.296c-31.403-11.755-67.648-7.552-95.488,10.987l-23.616,15.744l-14.123,13.824 c-21.461,21.461-33.301,50.005-33.301,80.384c0,88.235,71.765,160,160,160s160-71.765,160-160V213.291 C416.021,189.824,396.885,170.688,373.355,170.688z"/> </g> </g> </g>
</svg>