<!DOCTYPE svg PUBLIC "-//W3C//DTD SVG 1.1//EN" "http://www.w3.org/Graphics/SVG/1.1/DTD/svg11.dtd">
<!-- Uploaded to: SVG Repo, www.svgrepo.com, Transformed by: SVG Repo Mixer Tools -->
<svg version="1.1" id="Capa_1" xmlns="http://www.w3.org/2000/svg" xmlns:xlink="http://www.w3.org/1999/xlink" viewBox="0 0 339.011 339.011" xml:space="preserve" width="800px" height="800px" fill="#d60a0a">
<g id="SVGRepo_bgCarrier" stroke-width="0"/>
<g id="SVGRepo_tracerCarrier" stroke-linecap="round" stroke-linejoin="round"/>
<g id="SVGRepo_iconCarrier"> <g id="XMLID_785_"> <g id="XMLID_786_"> <rect id="XMLID_38_" x="171.225" y="299.01" style="fill:#e60505;" width="80" height="40.001"/> <rect id="XMLID_37_" x="91.227" y="299.01" style="fill:#e60505;" width="79.998" height="40.002"/> </g> <path id="XMLID_787_" style="fill:#b1690b;" d="M235.016,146.239c-4.148,0-8.034,1.116-11.384,3.054l-0.002-14.439 c0-12.578-10.195-22.772-22.769-22.772c-4.151,0-8.037,1.116-11.387,3.054l-12.251,28.376l-67.448-10v165.5h128.277l-0.002-37.438 c11.141-1.485,19.736-11.015,19.736-22.562v-70C257.787,156.433,247.592,146.239,235.016,146.239z"/> <path id="XMLID_34_" style="fill:#b1690b;" d="M103.766,134.494c12.448,0,22.541,10.092,22.541,22.541v75.137 c0,18.866,35.668,22.541-22.541,22.541l0,0c-12.449,0-22.542-10.092-22.542-22.541v-75.137 C81.224,144.586,91.317,134.494,103.766,134.494L103.766,134.494z"/> <path id="XMLID_788_" style="fill:#b26501;" d="M81.224,209.011v23.161c0,12.449,10.093,22.541,22.542,22.541 c2.132,0,4.123-0.006,6.01-0.016v44.314h128.277L81.224,209.011z"/> <path id="XMLID_32_" style="fill:#b1690b;" d="M185.14,152.76c-2.205,12.37-14.02,20.609-26.39,18.405l0,0 c-12.37-2.205-20.609-14.02-18.404-26.389l22.462-126.014c2.205-12.37,14.02-20.609,26.39-18.405l0,0 c12.369,2.205,20.609,14.02,18.404,26.389L185.14,152.76z"/> <path id="XMLID_3_" style="fill:#b1690b;" d="M105.308,152.76c2.205,12.37,14.021,20.609,26.39,18.405l0,0 c12.37-2.205,20.609-14.02,18.404-26.389L127.64,18.762c-2.205-12.37-14.02-20.609-26.39-18.405l0,0 c-12.369,2.205-20.609,14.02-18.404,26.389L105.308,152.76z"/> </g> </g>
</svg>